<!-- This Source Code Form is subject to the terms of the Mozilla Public
   - License, v. 2.0. If a copy of the MPL was not distributed with this
   - file, You can obtain one at http://mozilla.org/MPL/2.0/. -->
<svg width="17" height="16" viewBox="0 0 17 16" fill="none" xmlns="http://www.w3.org/2000/svg">
<path d="M5 3.28027H11C12.2261 3.28027 13.2197 4.27393 13.2197 5.5V8.98242C13.2197 10.0584 12.3475 10.9307 11.2715 10.9307C10.8252 10.9308 10.4562 11.2669 10.4062 11.7012L10.4004 11.7891L10.3779 13.3652C10.3775 13.3978 10.3688 13.417 10.3604 13.4297C10.3502 13.4449 10.3335 13.4605 10.3105 13.4717C10.2875 13.4829 10.2644 13.4868 10.2461 13.4854C10.2309 13.4841 10.2104 13.4787 10.1846 13.459L6.91699 10.9639L6.78906 10.8828C6.65533 10.8131 6.50494 10.7781 6.35254 10.7832L5.0752 10.8262C3.82049 10.8685 2.78027 9.86285 2.78027 8.60742V5.5C2.78027 4.27393 3.77393 3.28027 5 3.28027Z" stroke="context-fill" stroke-width="1.56" stroke-linecap="round"/>
<path d="M12.2532 1.0004C12.4484 0.597403 13.1311 0.640118 13.2849 1.0607C13.494 1.63292 13.7714 2.23643 14.1002 2.58857C14.4278 2.93948 14.9947 3.25108 15.5343 3.49224C15.94 3.67353 15.9462 4.35913 15.5429 4.54557C14.9976 4.79764 14.4241 5.11971 14.1002 5.4708C13.7663 5.83273 13.4813 6.39611 13.2684 6.90811C13.1062 7.29825 12.4929 7.34036 12.2884 6.97058C11.9898 6.43038 11.6092 5.82472 11.2401 5.4708C10.8548 5.10132 10.277 4.74003 9.79069 4.46889C9.45003 4.27897 9.45466 3.7459 9.79811 3.56108C10.2833 3.29997 10.8576 2.95107 11.2401 2.58857C11.5942 2.253 11.9598 1.60603 12.2532 1.0004Z" fill="context-fill" stroke="context-stroke"/>
</svg>
