<!-- This Source Code Form is subject to the terms of the Mozilla Public
   - License, v. 2.0. If a copy of the MPL was not distributed with this
   - file, You can obtain one at https://mozilla.org/MPL/2.0/. -->
<svg width="16" height="16" viewBox="0 0 16 16" fill="none" xmlns="http://www.w3.org/2000/svg">
  <g clip-path="url(#clip0_9465_133975)">
  <path d="M8.00293 0C12.4213 0 16.0029 3.5816 16.0029 8C16.0053 10.083 15.1927 12.0843 13.7389 13.576C12.9943 14.3441 12.1027 14.9545 11.1173 15.3709C10.1318 15.7873 9.07272 16.0013 8.00293 16C6.93314 16.0013 5.87401 15.7873 4.8886 15.3709C3.90318 14.9545 3.0116 14.3441 2.26693 13.576C0.813113 12.0843 0.000542392 10.083 0.00293496 8C0.00293496 3.5816 3.58453 0 8.00293 0ZM8.00293 11.2C7.24303 11.1994 6.491 11.3539 5.79289 11.6541C5.09478 11.9542 4.46528 12.3937 3.94293 12.9456C5.08592 13.8878 6.52163 14.4022 8.00293 14.4C9.48395 14.402 10.9194 13.8877 12.0621 12.9456C11.5399 12.3938 10.9105 11.9544 10.2125 11.6542C9.51457 11.3541 8.7627 11.1995 8.00293 11.2ZM8.00293 1.6C6.82029 1.59999 5.66077 1.92766 4.65306 2.54666C3.64536 3.16566 2.82887 4.05178 2.29422 5.10666C1.75956 6.16155 1.52766 7.34395 1.62424 8.52264C1.72081 9.70133 2.1421 10.8302 2.84133 11.784C3.51116 11.0923 4.31334 10.5425 5.2001 10.1672C6.08686 9.79204 7.04006 9.59912 8.00293 9.6C8.96567 9.59923 9.91872 9.7922 10.8053 10.1674C11.6919 10.5426 12.494 11.0924 13.1637 11.784C13.8629 10.8303 14.2842 9.70146 14.3808 8.52284C14.4774 7.34422 14.2456 6.16188 13.711 5.10702C13.1765 4.05216 12.3601 3.16603 11.3525 2.54698C10.3449 1.92792 9.1855 1.60013 8.00293 1.6ZM7.62693 2.656C7.65693 2.58079 7.70879 2.5163 7.77582 2.47087C7.84285 2.42544 7.92196 2.40116 8.00293 2.40116C8.0839 2.40116 8.16301 2.42544 8.23004 2.47087C8.29707 2.5163 8.34893 2.58079 8.37893 2.656L8.58213 3.144C8.92172 3.97206 9.56596 4.63834 10.3821 5.0056L10.9565 5.26C11.2845 5.4064 11.2845 5.8848 10.9565 6.0312L10.3485 6.3016C9.55282 6.65866 8.91976 7.30086 8.57413 8.1016L8.37653 8.5544C8.34577 8.62813 8.29389 8.69111 8.22741 8.73542C8.16092 8.77972 8.08282 8.80336 8.00293 8.80336C7.92304 8.80336 7.84494 8.77972 7.77845 8.73542C7.71197 8.69111 7.66009 8.62813 7.62933 8.5544L7.43253 8.1024C7.08668 7.30107 6.45298 6.65853 5.65653 6.3016L5.04853 6.0312C4.97491 5.99717 4.91257 5.94277 4.86888 5.87444C4.82518 5.80611 4.80197 5.7267 4.80197 5.6456C4.80197 5.56449 4.82518 5.48508 4.86888 5.41675C4.91257 5.34842 4.97491 5.29403 5.04853 5.26L5.62293 5.0056C6.43925 4.6387 7.08378 3.9727 7.42373 3.1448L7.62693 2.656Z" fill="context-fill"/>
    <line
    x1="2"
    y1="14"
    x2="14"
    y2="2"
    stroke="context-fill"
    stroke-width="1.5"
    stroke-linecap="round"
    />
  </g>
  <defs>
    <clipPath id="clip0_9465_133975">
      <rect width="16" height="16" fill="white"/>
    </clipPath>
  </defs>
</svg>
