<!-- This Source Code Form is subject to the terms of the Mozilla Public
   - License, v. 2.0. If a copy of the MPL was not distributed with this
   - file, You can obtain one at http://mozilla.org/MPL/2.0/. -->
<svg xmlns="http://www.w3.org/2000/svg" width="48" height="16" fill="none" viewBox="0 0 48 16">
  <circle cx="6.99219" cy="8" r="5.25" fill="none" stroke="context-stroke" stroke-width="1.5"/>
  <path fill="context-fill" fill-opacity="context-fill-opacity" d="M38.2402 13.2856V2.7168H39.8809L45.5498 10.6636L44.2461 9.99707H45.1909V2.7168H47.0073V13.2856H45.374L39.7051 5.33154L41.0088 5.99805H40.064V13.2856H38.2402ZM29.2827 9.79199V8.26855H32.0952C32.7739 8.26855 33.3013 8.09521 33.6772 7.74854C34.0532 7.39697 34.2412 6.90381 34.2412 6.26904V6.25439C34.2412 5.61475 34.0532 5.12158 33.6772 4.7749C33.3013 4.42822 32.7739 4.25488 32.0952 4.25488H29.2827V2.7168H32.5566C33.2744 2.7168 33.9019 2.86328 34.439 3.15625C34.9761 3.44922 35.396 3.86182 35.6987 4.39404C36.0015 4.92139 36.1528 5.53906 36.1528 6.24707V6.26172C36.1528 6.96484 36.0015 7.58252 35.6987 8.11475C35.396 8.64209 34.9761 9.05469 34.439 9.35254C33.9019 9.64551 33.2744 9.79199 32.5566 9.79199H29.2827ZM28.3379 13.2856V2.7168H30.2275V13.2856H28.3379ZM20.647 13.2856L16.9922 2.7168H19.0723L21.687 11.103H21.8115L24.4336 2.7168H26.5137L22.8516 13.2856H20.647Z"/>
</svg>
