<!-- This Source Code Form is subject to the terms of the Mozilla Public
   - License, v. 2.0. If a copy of the MPL was not distributed with this
   - file, You can obtain one at http://mozilla.org/MPL/2.0/. -->
<svg xmlns="http://www.w3.org/2000/svg" width="48" height="16" fill="none" viewBox="0 0 48 16">
  <path fill="context-stroke" fill-rule="evenodd" d="M6.99219 2C10.3012 2 12.9922 4.691 12.9922 8C12.9922 11.309 10.3012 14 6.99219 14C3.68319 14 0.992188 11.309 0.992188 8C0.992188 4.691 3.68319 2 6.99219 2ZM6.36719 9.75V11H7.61719V9.75H6.36719ZM6.36719 5V8.5H7.61719V5H6.36719Z" clip-rule="evenodd"/>
  <path fill="context-fill" fill-opacity="context-fill-opacity" d="M38.2402 13.2837V2.71484H39.8809L45.5498 10.6616L44.2461 9.99512H45.1909V2.71484H47.0073V13.2837H45.374L39.7051 5.32959L41.0088 5.99609H40.064V13.2837H38.2402ZM29.2827 9.79004V8.2666H32.0952C32.7739 8.2666 33.3013 8.09326 33.6772 7.74658C34.0532 7.39502 34.2412 6.90186 34.2412 6.26709V6.25244C34.2412 5.61279 34.0532 5.11963 33.6772 4.77295C33.3013 4.42627 32.7739 4.25293 32.0952 4.25293H29.2827V2.71484H32.5566C33.2744 2.71484 33.9019 2.86133 34.439 3.1543C34.9761 3.44727 35.396 3.85986 35.6987 4.39209C36.0015 4.91943 36.1528 5.53711 36.1528 6.24512V6.25977C36.1528 6.96289 36.0015 7.58057 35.6987 8.11279C35.396 8.64014 34.9761 9.05273 34.439 9.35059C33.9019 9.64355 33.2744 9.79004 32.5566 9.79004H29.2827ZM28.3379 13.2837V2.71484H30.2275V13.2837H28.3379ZM20.647 13.2837L16.9922 2.71484H19.0723L21.687 11.1011H21.8115L24.4336 2.71484H26.5137L22.8516 13.2837H20.647Z"/>
</svg>
